<?xml version="1.0" encoding="UTF-8" standalone="no"?>
<!-- Created with Inkscape (http://www.inkscape.org/) -->

<svg
   version="1.1"
   id="svg2"
   xml:space="preserve"
   width="458.43228"
   height="201.22878"
   viewBox="0 0 458.43229 201.22877"
   sodipodi:docname="gate-teamware-logo.svg"
   inkscape:version="1.1.1 (1:1.1+202109281949+c3084ef5ed)"
   xmlns:inkscape="http://www.inkscape.org/namespaces/inkscape"
   xmlns:sodipodi="http://sodipodi.sourceforge.net/DTD/sodipodi-0.dtd"
   xmlns="http://www.w3.org/2000/svg"
   xmlns:svg="http://www.w3.org/2000/svg"><defs
     id="defs6"><clipPath
       clipPathUnits="userSpaceOnUse"
       id="clipPath26"><path
         d="M 0,0 H 355 V 171 H 0 Z"
         id="path24" /></clipPath></defs><sodipodi:namedview
     id="namedview4"
     pagecolor="#ffffff"
     bordercolor="#666666"
     borderopacity="1.0"
     inkscape:pageshadow="2"
     inkscape:pageopacity="0.0"
     inkscape:pagecheckerboard="0"
     showgrid="false"
     fit-margin-top="0"
     fit-margin-left="0"
     fit-margin-right="0"
     fit-margin-bottom="0"
     inkscape:zoom="2.8680807"
     inkscape:cx="258.70959"
     inkscape:cy="112.7932"
     inkscape:window-width="2560"
     inkscape:window-height="1549"
     inkscape:window-x="0"
     inkscape:window-y="0"
     inkscape:window-maximized="1"
     inkscape:current-layer="g8" /><g
     id="g8"
     inkscape:groupmode="layer"
     inkscape:label="logo+teamware"
     transform="matrix(1.3333333,0,0,1.3333333,-9.4479998,-0.69333332)"><path
       d="m 182.87552,128.35404 h 19.53087 v 2.62885 h -8.19585 v 20.4587 h -3.13917 v -20.4587 h -8.19585 z"
       id="path1834"
       style="font-size:31.67px;font-family:Poppins;-inkscape-font-specification:Poppins-Regular;fill:#e60000;stroke-width:0.999995" /><path
       d="m 203.21001,128.35404 h 14.59789 v 2.62885 h -11.47419 v 6.83503 h 10.99481 v 2.62886 h -10.99481 v 8.36595 h 11.75254 v 2.62886 h -14.87624 z"
       id="path1836"
       style="font-size:31.67px;font-family:Poppins;-inkscape-font-specification:Poppins-Regular;fill:#e60000;stroke-width:0.999995" /><path
       d="m 227.17319,131.43135 -4.2371,11.48965 h 8.48966 z m -1.76288,-3.07731 h 3.54122 l 8.79894,23.08755 h -3.24741 l -2.10309,-5.92266 h -10.40718 l -2.10308,5.92266 h -3.29381 z"
       id="path1838"
       style="font-size:31.67px;font-family:Poppins;-inkscape-font-specification:Poppins-Regular;fill:#e60000;stroke-width:0.999995" /><path
       d="m 240.8023,128.35404 h 4.65462 l 5.89174,15.71128 5.92266,-15.71128 h 4.65462 v 23.08755 h -3.04638 v -20.27313 l -5.95359,15.835 h -3.13916 l -5.95359,-15.835 v 20.27313 h -3.03092 z"
       id="path1840"
       style="font-size:31.67px;font-family:Poppins;-inkscape-font-specification:Poppins-Regular;fill:#e60000;stroke-width:0.999995" /><path
       d="m 266.01346,128.35404 h 3.15463 l 4.85565,19.5154 4.84019,-19.5154 h 3.5103 l 4.85565,19.5154 4.84019,-19.5154 h 3.1701 l -5.79895,23.08755 h -3.92783 l -4.87111,-20.04117 -4.91751,20.04117 h -3.92783 z"
       id="path1842"
       style="font-size:31.67px;font-family:Poppins;-inkscape-font-specification:Poppins-Regular;fill:#e60000;stroke-width:0.999995" /><path
       d="m 303.14951,131.43135 -4.2371,11.48965 h 8.48966 z m -1.76289,-3.07731 h 3.54123 l 8.79894,23.08755 h -3.24741 l -2.10309,-5.92266 h -10.40718 l -2.10309,5.92266 h -3.2938 z"
       id="path1844"
       style="font-size:31.67px;font-family:Poppins;-inkscape-font-specification:Poppins-Regular;fill:#e60000;stroke-width:0.999995" /><path
       d="m 327.72703,140.61688 q 1.00516,0.34021 1.94845,1.45361 0.95876,1.11339 1.91752,3.06184 l 3.17009,6.30926 h -3.35565 l -2.9536,-5.92266 q -1.14433,-2.31958 -2.2268,-3.07731 -1.06701,-0.75773 -2.92267,-0.75773 h -3.40205 v 9.7577 h -3.1237 v -23.08755 h 7.05152 q 3.95875,0 5.9072,1.65463 1.94844,1.65463 1.94844,4.99483 0,2.1804 -1.02061,3.61854 -1.00515,1.43814 -2.93814,1.99484 z m -7.82471,-9.69584 v 8.19585 h 3.92782 q 2.25773,0 3.40205,-1.03608 1.15979,-1.05154 1.15979,-3.07731 0,-2.02577 -1.15979,-3.04638 -1.14432,-1.03608 -3.40205,-1.03608 z"
       id="path1846"
       style="font-size:31.67px;font-family:Poppins;-inkscape-font-specification:Poppins-Regular;fill:#e60000;stroke-width:0.999995" /><path
       d="m 336.03399,128.35404 h 14.59789 v 2.62885 h -11.47419 v 6.83503 h 10.99481 v 2.62886 h -10.99481 v 8.36595 h 11.75254 v 2.62886 h -14.87624 z"
       id="path1848"
       style="font-size:31.67px;font-family:Poppins;-inkscape-font-specification:Poppins-Regular;fill:#e60000;stroke-width:0.999995" /><path
       d="m 144.781,1.734 -38.156,105.469 h 26.887 l 6.312,-18.633 h 39.36 l 6.312,18.633 h 27.199 L 174.535,1.734 Z m 2.239,3.192 h 25.273 l 35.848,99.086 h -20.356 l -5.578,-16.465 -0.734,-2.168 h -43.938 l -0.734,2.168 -5.578,16.465 h -20.047 z m 9.449,24.187 -12.918,38.614 -1.406,4.207 h 34.886 l -1.429,-4.219 -13.079,-38.61 -3.043,-8.988 z m 3.027,1.016 13.082,38.609 h -26 z m 60.192,77.074 h 25.695 V 43.598 h -25.695 z m 3.195,-60.414 h 19.305 v 57.223 h -19.305 z"
       style="fill:#e60000;fill-opacity:1;fill-rule:nonzero;stroke:none"
       id="path16" /><g
       id="g22"
       clip-path="url(#clipPath26)"><g
         id="g28"><path
           d="M 308.34,86.613 V 63.477 h 34.402 V 43.645 H 308.34 V 22.309 h 38.906 V 1.73 h -64.613 v 105.473 h 64.613 V 86.613 Z M 191.746,22.309 h 81.578 V 1.734 H 191.746 Z M 111.664,71.59 V 47.711 H 55.766 V 66.633 H 88.371 C 84.469,78.504 75.609,85.27 62.836,85.27 44.352,85.27 33.23,73.852 33.23,54.312 33.23,35.988 44.207,24.27 60.734,24.27 c 9.614,0 16.821,3.753 20.723,10.812 h 28.41 C 104.301,13.453 85.973,0.52 60.734,0.52 29.18,0.52 7.086,22.762 7.086,54.312 c 0,31.555 22.242,53.637 53.793,53.637 27.797,0 45.379,-18.179 50.785,-36.359"
           style="fill:#009641;fill-opacity:1;fill-rule:nonzero;stroke:none"
           id="path30" /></g></g></g></svg>
